# xmcd CD database file
#
# Track frame offsets:
#	183
#	11488
#	24125
#	37850
#	45795
#	56983
#	69075
#	80998
#	91870
#	103600
#	114788
#	126448
#	137023
#	148093
#	159460
#	169923
#	179848
#	191150
#	202240
#	219640
#	235435
#	243608
#	254690
#	264665
#
# Disc length: 3687 seconds
#
# Revision: 1
# Processed by: cddbd v1.4PL0 Copyright (c) Steve Scherf et al.
# Submitted via: CDex 1.50beta9
#
DISCID=620e6518
DTITLE=Art Tatum - Masterpieces
DYEAR=1938
DGENRE=Jazz
TTITLE0=Runnin' wild
TTITLE1=The man I love
TTITLE2=I can't get started
TTITLE3=Happy feet
TTITLE4=Royal Garden blues
TTITLE5=Ain't misbehavin'
TTITLE6=Stardust
TTITLE7=In a sentimental mood
TTITLE8=Sweet Lorraine
TTITLE9=I'll get by
TTITLE10=I'll never be the same
TTITLE11=Judy
TTITLE12=Elegie
TTITLE13=Body and soul
TTITLE14=Can't be friends
TTITLE15=Make believe
TTITLE16=It had to be you
TTITLE17=Oh, you crazy moon
TTITLE18=Over the rainbow
TTITLE19=Day in, day out
TTITLE20=Fine and dandy
TTITLE21=I've got the world on a string
TTITLE22=I've got a right to sing the blues
TTITLE23=I'm coming Virginia
EXTD=YEAR: 1938
EXTT0=
EXTT1=
EXTT2=
EXTT3=
EXTT4=
EXTT5=
EXTT6=
EXTT7=
EXTT8=
EXTT9=
EXTT10=
EXTT11=
EXTT12=
EXTT13=
EXTT14=
EXTT15=
EXTT16=
EXTT17=
EXTT18=
EXTT19=
EXTT20=
EXTT21=
EXTT22=
EXTT23=
PLAYORDER=
